# xmcd
#
# Track frame offsets: 
#        150
#        18686
#        35194
#        54045
#        73561
#        85811
#        103374
#        117911
#        133049
#        146920
#        161362
#        181144
#
# Disc length: 2558 seconds
#
# Revision: 1
# Processed by: cddbd v1.5.2PL0 Copyright (c) Steve Scherf et al.
# Submitted via: ExactAudioCopy v1.0b1
#
DISCID=a809fc0c
DTITLE=Грассмейстер - Повод чтоб все началось
DYEAR=1900
DGENRE=Country
TTITLE0=В шести километрах от рая
TTITLE1=Повод, чтоб все началось
TTITLE2=Почему вы так?
TTITLE3=Эх-да!
TTITLE4=Значит так!
TTITLE5=Вернусь к тебе
TTITLE6=Полюбила...
TTITLE7=Не уходи
TTITLE8=Мужская задушевная
TTITLE9=Удача
TTITLE10=Спасибо
TTITLE11=Тишина
EXTD=
EXTT0=
EXTT1=
EXTT2=
EXTT3=
EXTT4=
EXTT5=
EXTT6=
EXTT7=
EXTT8=
EXTT9=
EXTT10=
EXTT11=
PLAYORDER=
